<?xml version="1.0" encoding="UTF-8" standalone="no"?>
<!-- Created with Inkscape (http://www.inkscape.org/) -->

<svg
   xmlns:dc="http://purl.org/dc/elements/1.1/"
   xmlns:cc="http://creativecommons.org/ns#"
   xmlns:rdf="http://www.w3.org/1999/02/22-rdf-syntax-ns#"
   xmlns:svg="http://www.w3.org/2000/svg"
   xmlns="http://www.w3.org/2000/svg"
   xmlns:sodipodi="http://sodipodi.sourceforge.net/DTD/sodipodi-0.dtd"
   xmlns:inkscape="http://www.inkscape.org/namespaces/inkscape"
   width="635mm"
   height="318.25601mm"
   viewBox="0 0 635 318.25601"
   version="1.1"
   id="svg4612"
   inkscape:version="0.92.3 (2405546, 2018-03-11)"
   sodipodi:docname="header-fg.svg">
  <defs
     id="defs4606" />
  <sodipodi:namedview
     id="base"
     pagecolor="#ffffff"
     bordercolor="#666666"
     borderopacity="1.0"
     inkscape:pageopacity="0.0"
     inkscape:pageshadow="2"
     inkscape:zoom="0.2184082"
     inkscape:cx="169.12012"
     inkscape:cy="457.96705"
     inkscape:document-units="mm"
     inkscape:current-layer="layer1"
     showgrid="false"
     inkscape:window-width="1364"
     inkscape:window-height="800"
     inkscape:window-x="2201"
     inkscape:window-y="162"
     inkscape:window-maximized="0" />
  <metadata
     id="metadata4609">
    <rdf:RDF>
      <cc:Work
         rdf:about="">
        <dc:format>image/svg+xml</dc:format>
        <dc:type
           rdf:resource="http://purl.org/dc/dcmitype/StillImage" />
        <dc:title></dc:title>
      </cc:Work>
    </rdf:RDF>
  </metadata>
  <g
     inkscape:label="Layer 1"
     inkscape:groupmode="layer"
     id="layer1"
     transform="translate(0,21.256)">
    <g
       transform="matrix(0.26458333,0,0,0.26458338,0,-338.0001)"
       id="g4329"
       style="display:inline;fill:#000000;fill-opacity:1">
      <path
         id="path4294"
         d="m 1900.625,1288.4824 v 0.039 l -3.1953,6.3887 v 57.3222 l -1.25,1.7852 v 12.2324 l -12.9453,27.0527 v 39.9121 l -11.7344,72.5469 v 115.4102 l -16.7949,50.5078 v 496.8926 l -4.5957,10.0879 -38.3946,19.375 v 15 h 23.3946 l -3.6055,6.2441 h 18.2637 v 5.7754 c 0,0 -7.6406,9.5326 -7.6406,32.1348 h 27.6015 c 0,-22.6022 -7.6387,-32.1348 -7.6387,-32.1348 v -5.7754 h 32.377 v 5.7754 c 0,0 -7.6406,9.5326 -7.6406,32.1348 h 27.6015 c 0,-22.6022 -7.6386,-32.1348 -7.6386,-32.1348 v -5.7754 h 32.6289 v 5.7754 c 0,0 -7.6407,9.5326 -7.6407,32.1348 h 27.6016 c 0,-22.6022 -7.6387,-32.1348 -7.6387,-32.1348 v -5.7754 h 18.0254 l -3.6054,-6.2441 h 23.3925 v -15 l -38.3925,-19.375 -4.5957,-10.0879 v -496.8926 l -16.795,-50.5078 v -115.4102 l -11.7343,-72.5469 v -39.9121 l -12.9454,-27.0527 v -12.2324 l -1.25,-1.7852 v -57.3222 l -3.1953,-6.3887 v -0.039 l -0.01,0.02 -0.01,-0.02 z"
         style="display:inline;fill:#000000;fill-opacity:1;fill-rule:evenodd;stroke:none;stroke-width:1px;stroke-linecap:butt;stroke-linejoin:miter;stroke-opacity:1"
         inkscape:connector-curvature="0" />
      <path
         sodipodi:nodetypes="ccccccccccccccccccccccccccccccccccc"
         inkscape:connector-curvature="0"
         id="path4325"
         d="M 1610,733.6121 V -150.495 h 139.8367 V 31.603 h 141.9265 v 40.1535 h -141.9265 v 75.0038 h 125.5115 v 44.4468 h -125.5115 v 57.8312 h 123.7437 v 28.2843 h -123.7437 v 27.0215 h 112.8846 v 27.7792 h -112.8846 v 114.6523 h 110.3592 v 42.1739 h -110.3592 v 19.1929 h 106.8237 v 32.83 h -106.8237 v 131.5723 h 107.3288 v 28.2843 h -107.3288 v 31.3147 l 45.7095,177.7869 h -214.8319 z"
         style="display:inline;fill:#000000;fill-opacity:1;fill-rule:evenodd;stroke:none;stroke-width:1px;stroke-linecap:butt;stroke-linejoin:miter;stroke-opacity:1"
         transform="translate(0,1347.6379)" />
      <path
         sodipodi:nodetypes="cccccccccccccccccccccc"
         inkscape:connector-curvature="0"
         id="path4292"
         d="m 2400,2400 v -88.3883 l -81.6999,15.9099 -125.2589,-59.094 -123.9962,61.6193 -27.0216,-3.0304 v -69.9531 h -531.8453 v 53.033 l -189.9087,23.2335 -253.5483,-4.5457 -116.16755,-14.1421 -135.36045,3.5355 -115.15739,10.1016 L 574.7768,2314.137 457.5991,2276.7614 323.24881,2271.7106 207.08127,2259.5888 82.832509,2324.2386 0,2315.9048 V 2400 Z"
         style="fill:#000000;fill-opacity:1;fill-rule:evenodd;stroke:none;stroke-width:1px;stroke-linecap:butt;stroke-linejoin:miter;stroke-opacity:1" />
    </g>
  </g>
</svg>
