<?xml version="1.0" encoding="UTF-8" standalone="no"?>
<!-- Created with Inkscape (http://www.inkscape.org/) -->

<svg
   xmlns:dc="http://purl.org/dc/elements/1.1/"
   xmlns:cc="http://creativecommons.org/ns#"
   xmlns:rdf="http://www.w3.org/1999/02/22-rdf-syntax-ns#"
   xmlns:svg="http://www.w3.org/2000/svg"
   xmlns="http://www.w3.org/2000/svg"
   xmlns:xlink="http://www.w3.org/1999/xlink"
   xmlns:sodipodi="http://sodipodi.sourceforge.net/DTD/sodipodi-0.dtd"
   xmlns:inkscape="http://www.inkscape.org/namespaces/inkscape"
   width="635mm"
   height="148.545mm"
   viewBox="0 0 635 148.545"
   version="1.1"
   id="svg4612"
   inkscape:version="0.92.3 (2405546, 2018-03-11)"
   sodipodi:docname="header-terrain3.svg">
  <defs
     id="defs4606">
    <linearGradient
       gradientTransform="matrix(0.26458333,0,0,0.26458333,0,-184.91963)"
       inkscape:collect="always"
       xlink:href="#linearGradient4369"
       id="linearGradient4375"
       x1="-0.5"
       y1="1510.8779"
       x2="-0.5"
       y2="1640.1636"
       gradientUnits="userSpaceOnUse" />
    <linearGradient
       inkscape:collect="always"
       id="linearGradient4369">
      <stop
         style="stop-color:#571613;stop-opacity:1"
         offset="0"
         id="stop4371" />
      <stop
         style="stop-color:#663025;stop-opacity:1"
         offset="1"
         id="stop4373" />
    </linearGradient>
  </defs>
  <sodipodi:namedview
     id="base"
     pagecolor="#ffffff"
     bordercolor="#666666"
     borderopacity="1.0"
     inkscape:pageopacity="0.0"
     inkscape:pageshadow="2"
     inkscape:zoom="0.2184082"
     inkscape:cx="576.34717"
     inkscape:cy="457.96705"
     inkscape:document-units="mm"
     inkscape:current-layer="layer1"
     showgrid="false"
     inkscape:window-width="1364"
     inkscape:window-height="800"
     inkscape:window-x="2201"
     inkscape:window-y="162"
     inkscape:window-maximized="0" />
  <metadata
     id="metadata4609">
    <rdf:RDF>
      <cc:Work
         rdf:about="">
        <dc:format>image/svg+xml</dc:format>
        <dc:type
           rdf:resource="http://purl.org/dc/dcmitype/StillImage" />
        <dc:title></dc:title>
      </cc:Work>
    </rdf:RDF>
  </metadata>
  <g
     inkscape:label="Layer 1"
     inkscape:groupmode="layer"
     id="layer1"
     transform="translate(0,-148.45502)">
    <path
       style="display:inline;fill:url(#linearGradient4375);fill-opacity:1;fill-rule:evenodd;stroke:none;stroke-width:0.26458332px;stroke-linecap:butt;stroke-linejoin:miter;stroke-opacity:1"
       d="m 634.99997,297.00002 v -94.49406 l -7.9375,-8.31548 -12.09524,-17.00893 -17.76486,-14.36309 -15.875,-7.9375 -20.41073,-1.88986 -13.60715,4.91368 -9.82737,15.11903 -10.58333,21.54465 -7.18156,11.71726 -14.36309,5.29167 -21.16667,8.31548 -12.47322,18.14285 -7.55952,5.29167 -25.70236,-2.64584 -18.89882,-6.80357 -11.71726,1.51191 -20.41073,-9.07143 -21.16666,-8.31548 -16.63094,-3.40178 -9.8274,6.04761 -15.11903,12.47323 -10.96131,6.80357 -24.56847,-4.53572 -18.14285,-10.96129 -18.89879,-9.8274 -17.76489,-5.66965 -23.8125,6.80358 -10.20535,3.4018 -12.4732,-21.16667 -13.98514,-11.3393 -5.66965,-2.26785 -24.56844,8.69344 -14.36309,-18.52083 -17.00893,-10.20535 -31.37204,27.21427 -24.19046,-3.40177 -17.3869,18.89882 L 27.59226,217.62502 13.22917,184.36311 0,148.45537 v 148.54465 z"
       id="path4367"
       inkscape:connector-curvature="0"
       sodipodi:nodetypes="cccccccccccccccccccccccccccccccccccccccccccc" />
  </g>
</svg>
