<?xml version="1.0" encoding="UTF-8" standalone="no"?>
<!-- Created with Inkscape (http://www.inkscape.org/) -->

<svg
   xmlns:dc="http://purl.org/dc/elements/1.1/"
   xmlns:cc="http://creativecommons.org/ns#"
   xmlns:rdf="http://www.w3.org/1999/02/22-rdf-syntax-ns#"
   xmlns:svg="http://www.w3.org/2000/svg"
   xmlns="http://www.w3.org/2000/svg"
   xmlns:xlink="http://www.w3.org/1999/xlink"
   xmlns:sodipodi="http://sodipodi.sourceforge.net/DTD/sodipodi-0.dtd"
   xmlns:inkscape="http://www.inkscape.org/namespaces/inkscape"
   width="635mm"
   height="118.231mm"
   viewBox="0 0 635 118.231"
   version="1.1"
   id="svg4612"
   inkscape:version="0.92.3 (2405546, 2018-03-11)"
   sodipodi:docname="header-terrain2.svg">
  <defs
     id="defs4606">
    <linearGradient
       inkscape:collect="always"
       xlink:href="#linearGradient4361"
       id="linearGradient4359"
       x1="-2502.8572"
       y1="1517.3109"
       x2="-2502.8572"
       y2="1703.4857"
       gradientUnits="userSpaceOnUse"
       gradientTransform="matrix(0.26458333,0,0,0.26458333,662.21424,-185.48657)" />
    <linearGradient
       id="linearGradient4361"
       inkscape:collect="always">
      <stop
         id="stop4363"
         offset="0"
         style="stop-color:#280908;stop-opacity:1" />
      <stop
         id="stop4365"
         offset="1"
         style="stop-color:#331812;stop-opacity:1" />
    </linearGradient>
  </defs>
  <sodipodi:namedview
     id="base"
     pagecolor="#ffffff"
     bordercolor="#666666"
     borderopacity="1.0"
     inkscape:pageopacity="0.0"
     inkscape:pageshadow="2"
     inkscape:zoom="0.2184082"
     inkscape:cx="576.34717"
     inkscape:cy="457.96705"
     inkscape:document-units="mm"
     inkscape:current-layer="layer1"
     showgrid="false"
     inkscape:window-width="1364"
     inkscape:window-height="800"
     inkscape:window-x="2201"
     inkscape:window-y="162"
     inkscape:window-maximized="0" />
  <metadata
     id="metadata4609">
    <rdf:RDF>
      <cc:Work
         rdf:about="">
        <dc:format>image/svg+xml</dc:format>
        <dc:type
           rdf:resource="http://purl.org/dc/dcmitype/StillImage" />
        <dc:title></dc:title>
      </cc:Work>
    </rdf:RDF>
  </metadata>
  <g
     inkscape:label="Layer 1"
     inkscape:groupmode="layer"
     id="layer1"
     transform="translate(0,-178.76902)">
    <path
       style="display:inline;fill:url(#linearGradient4359);fill-opacity:1;fill-rule:evenodd;stroke:none;stroke-width:0.26458332px;stroke-linecap:butt;stroke-linejoin:miter;stroke-opacity:1"
       d="m 0,297.00002 h 634.99997 v -59.53125 -4.72469 l -3.49628,4.91369 -3.59077,-4.8192 -1.79538,2.92933 -3.77976,-9.92187 -2.36236,5.95312 -3.59076,-11.81177 -3.5908,8.40997 -1.32291,-10.11087 -2.64584,6.42559 -3.30729,-7.08705 -2.55132,3.40181 -3.30729,-11.0558 -2.57911,5.4143 -3.47451,-8.28538 -3.07358,6.01358 -2.93997,-4.94448 -2.40544,6.68174 -3.34086,-6.68174 -1.8709,4.40995 -4.54358,-9.22081 -2.27179,8.41899 -2.40541,-6.41448 -2.53907,5.7463 -3.34087,-7.08263 -2.67269,6.14719 -2.93997,-10.0226 -3.60815,11.22532 -3.74176,-4.6772 -3.34087,9.35443 -1.33636,-4.00905 -3.8754,10.28986 -1.73726,-6.81538 -3.74176,10.69078 -1.60361,-4.54356 -4.27633,10.69079 -2.13815,-3.87544 -2.93997,8.55263 -3.20723,-2.4054 -0.66818,2.93994 -4.54358,-5.07812 -2.80633,6.1472 -2.93995,-9.62171 -2.93997,8.95355 -1.87089,-7.08265 -3.20723,6.54812 -3.20723,-5.61266 -2.80632,5.47902 -2.67272,-7.75081 -2.27179,6.41445 -3.47451,-7.08263 -3.74176,6.54809 -2.3386,-6.88218 -2.33863,6.08039 -3.34087,-12.9626 -2.27179,7.88448 -4.2763,-6.14723 -1.20272,5.7463 -3.8754,-6.28084 -1.8709,4.14269 -4.00904,-5.7463 -2.13815,4.14269 -3.34087,-7.34991 -3.47451,7.34991 -1.73725,-2.93997 -1.73726,5.47902 -2.13815,-5.47902 -1.73725,6.28084 -3.07359,-5.61266 -1.87089,8.41899 -2.27179,-3.74177 -2.40544,7.08263 -2.00451,-4.67722 -3.8754,10.42352 -2.13815,-4.67722 -2.27182,6.94901 -3.60812,-9.48806 -2.13815,9.22078 -4.54359,-5.87991 -3.34087,4.94448 -3.4745,-3.20723 -3.07359,3.20723 -4.00905,-9.35442 -3.20725,10.55713 -3.60812,-10.82442 -2.80633,10.28989 -4.54358,-9.08717 -3.20723,8.28535 -2.27179,-5.34538 -2.93997,7.88445 -2.67269,-6.01358 -3.07361,6.41448 -2.93997,-7.48356 -3.20723,10.02261 -2.93997,-7.34989 -2.00451,7.88445 -3.47451,-5.87994 -3.07361,6.94901 -2.40541,-6.81537 -2.80633,6.94899 -3.34089,-6.1472 -2.27177,6.68174 -3.4745,-9.08714 -1.8709,6.68173 -3.47451,-8.28537 -2.40543,8.68627 -3.60812,-8.15174 -2.2718,6.68177 -2.93997,-7.2163 -2.80633,5.87994 -3.60815,-9.22081 -2.4054,8.28537 -3.07361,-10.15624 -3.07359,7.08263 -3.07361,-6.01355 -2.80633,4.94448 -2.00451,-3.87541 -3.60815,3.87541 -2.93997,-10.28989 -2.00451,8.55263 -3.34087,-12.69529 -3.34086,8.95353 -2.40544,-6.81538 -3.34086,6.81538 -2.67269,-9.22081 -3.20726,9.6217 -2.67268,-8.41898 -2.80633,7.75081 -2.93997,-7.75081 -2.93997,10.0226 -2.80633,-5.7463 -2.67269,6.68173 -3.47451,-7.21627 -1.46997,7.88445 -3.60815,-9.35442 -3.07361,9.22081 -2.67269,-10.42353 -2.00451,7.88445 -3.87538,-8.01809 -2.67272,7.08266 -3.20722,-8.01809 -2.27179,6.28083 -3.34087,-7.21627 -2.13815,6.94899 -3.87541,-8.55263 -1.73725,6.14723 -3.47451,-7.34992 -4.14269,8.81989 -1.73725,-5.07812 -3.34087,5.87994 -2.00451,-6.81538 -3.60815,8.28535 -3.20722,-8.68627 -2.67269,9.6217 -2.67272,-4.54358 -2.67269,6.01358 -3.34086,-8.15173 -3.07359,9.6217 -2.40543,-4.14268 -1.33636,2.67271 -3.47451,-9.75534 -2.27179,5.07812 -2.67269,-11.75986 -3.07358,5.61266 -2.67272,-14.56618 -2.4054,8.28534 -4.00905,-9.6217 -2.67269,6.14719 -4.67722,-14.2989 -2.00454,7.75081 -2.93994,-10.28988 -3.47451,8.15173 -3.20723,-6.81538 -2.80635,7.61717 -1.87087,-6.81537 -4.00905,6.68173 -1.60361,-8.01806 -4.00905,8.95352 -1.73725,-6.81537 -3.20723,9.35442 -2.80633,-5.34538 -2.13818,5.87992 -4.00902,-9.35442 -1.0691,5.47901 -3.8754,-6.41445 -2.29749,5.3616 -3.58243,-13.24605 -3.74179,7.08263 -1.46997,-7.75081 -1.8709,2.93997 -4.54358,-7.88445 -2.00451,4.54356 -4.00905,-13.09619 -2.67269,7.75081 -2.93997,-7.34991 -4.14268,6.54809 -2.2718,-4.6772 -2.93994,9.75532 -3.07361,-6.14719 -3.20723,13.09621 -2.27179,-4.14269 -2.53907,6.28084 -2.40541,-4.94448 -3.60815,9.08717 -2.40543,-5.47902 -4.00905,10.0226 -1.73723,-3.8754 -1.87089,4.81084 -4.67723,-6.28084 -2.40543,6.41448 -2.93994,-7.6172 -1.47,8.15173 -4.94448,-11.22531 -1.60362,9.08716 -3.34086,-8.28537 -2.53908,9.48806 -2.93994,-4.94448 -2.27179,4.54359 L 7.08263,199.88368 2.67269,210.7081 0,205.62998 Z"
       id="path4351"
       inkscape:connector-curvature="0"
       sodipodi:nodetypes="ccccccccccccccccccccccccccccccccccccccccccccccccccccccccccccccccccccccccccccccccccccccccccccccccccccccccccccccccccccccccccccccccccccccccccccccccccccccccccccccccccccccccccccccccccccccccccccccccccccccccccccccccccccccccccccccccc" />
  </g>
</svg>
